<svg xmlns="http://www.w3.org/2000/svg" width="29" height="30" viewBox="0 0 29 30">
    <path fill="#282828" fill-rule="evenodd" d="M27.188 2.813c.51 0 .939.18 1.288.541.35.362.524.806.524 1.333v23.438c0 .508-.175.947-.524 1.318a1.7 1.7 0 0 1-1.288.557H1.813a1.7 1.7 0 0 1-1.29-.557A1.859 1.859 0 0 1 0 28.125V4.687c0-.527.175-.971.524-1.333.35-.36.779-.542 1.288-.542h7.25V.938c0-.254.09-.474.27-.66A.857.857 0 0 1 9.969 0c.245 0 .458.093.637.278.18.186.269.406.269.66v1.875h7.25V.937c0-.253.09-.473.269-.659A.857.857 0 0 1 19.031 0c.246 0 .458.093.637.278.18.186.27.406.27.66v1.875h7.25zM27 28V5h-7.143v.92c0 .25-.088.465-.265.647a.846.846 0 0 1-.628.273.846.846 0 0 1-.628-.273.898.898 0 0 1-.265-.647V5H10.93v.92c0 .25-.089.465-.265.647a.846.846 0 0 1-.628.273.846.846 0 0 1-.628-.273.898.898 0 0 1-.265-.647V5H2v23h25zm-6-13a.961.961 0 0 1-.703-.297A.961.961 0 0 1 20 14v-2c0-.27.099-.505.297-.703A.961.961 0 0 1 21 11h2c.27 0 .505.099.703.297A.961.961 0 0 1 24 12v2c0 .27-.099.505-.297.703A.961.961 0 0 1 23 15h-2zm0 8a.961.961 0 0 1-.703-.297A.961.961 0 0 1 20 22v-2c0-.27.099-.505.297-.703A.961.961 0 0 1 21 19h2c.27 0 .505.099.703.297A.961.961 0 0 1 24 20v2c0 .27-.099.505-.297.703A.961.961 0 0 1 23 23h-2zm-5-4c.27 0 .505.099.703.297A.961.961 0 0 1 17 20v2c0 .27-.099.505-.297.703A.961.961 0 0 1 16 23h-2a.961.961 0 0 1-.703-.297A.961.961 0 0 1 13 22v-2c0-.27.099-.505.297-.703A.961.961 0 0 1 14 19h2zm0-8c.27 0 .505.099.703.297A.961.961 0 0 1 17 12v2c0 .27-.099.505-.297.703A.961.961 0 0 1 16 15h-2a.961.961 0 0 1-.703-.297A.961.961 0 0 1 13 14v-2c0-.27.099-.505.297-.703A.961.961 0 0 1 14 11h2zm-8 0c.27 0 .505.099.703.297A.961.961 0 0 1 9 12v2c0 .27-.099.505-.297.703A.961.961 0 0 1 8 15H6a.961.961 0 0 1-.703-.297A.961.961 0 0 1 5 14v-2c0-.27.099-.505.297-.703A.961.961 0 0 1 6 11h2zm0 8c.27 0 .505.099.703.297A.961.961 0 0 1 9 20v2c0 .27-.099.505-.297.703A.961.961 0 0 1 8 23H6a.961.961 0 0 1-.703-.297A.961.961 0 0 1 5 22v-2c0-.27.099-.505.297-.703A.961.961 0 0 1 6 19h2z" opacity=".2"/>
</svg>
