<svg xmlns="http://www.w3.org/2000/svg" width="30" height="30" viewBox="0 0 30 30">
    <path fill="#282828" fill-rule="evenodd" d="M14.839.87c2 0 3.88.378 5.644 1.132 1.763.755 3.3 1.787 4.61 3.098a14.535 14.535 0 0 1 3.099 4.611c.754 1.764 1.131 3.645 1.131 5.644s-.377 3.88-1.131 5.644a14.535 14.535 0 0 1-3.098 4.61 14.535 14.535 0 0 1-4.611 3.098c-1.764.755-3.645 1.132-5.644 1.132-2 0-3.88-.377-5.644-1.132a14.535 14.535 0 0 1-4.61-3.097 14.535 14.535 0 0 1-3.099-4.611C.732 19.235.355 17.354.355 15.355c0-2 .377-3.88 1.131-5.644A14.535 14.535 0 0 1 4.584 5.1a14.535 14.535 0 0 1 4.611-3.098C10.96 1.248 12.84.871 14.84.871zm0 27.187c1.754 0 3.4-.335 4.936-1.005a12.79 12.79 0 0 0 4.018-2.73 13.086 13.086 0 0 0 2.715-4.03c.67-1.538 1.005-3.183 1.005-4.937 0-1.754-.335-3.4-1.005-4.937a12.911 12.911 0 0 0-2.715-4.017 12.911 12.911 0 0 0-4.018-2.715c-1.537-.67-3.182-1.005-4.936-1.005s-3.4.335-4.936 1.005A12.911 12.911 0 0 0 5.885 6.4a12.911 12.911 0 0 0-2.715 4.017c-.67 1.537-1.005 3.183-1.005 4.937 0 1.754.335 3.4 1.005 4.936a13.086 13.086 0 0 0 2.715 4.032 12.79 12.79 0 0 0 4.018 2.73c1.537.669 3.182 1.004 4.936 1.004zm.905-13.07l4.272 4.272c.17.17.255.382.255.636a.864.864 0 0 1-.255.637.82.82 0 0 1-.637.283.82.82 0 0 1-.636-.283l-4.498-4.47c0-.019-.005-.033-.014-.042l-.014-.014a.702.702 0 0 1-.213-.283.947.947 0 0 1-.07-.368V6.302a.87.87 0 0 1 .268-.636.87.87 0 0 1 .637-.269.87.87 0 0 1 .637.269.87.87 0 0 1 .268.636v8.685z" opacity=".2"/>
</svg>
