<svg xmlns="http://www.w3.org/2000/svg" width="30" height="29" viewBox="0 0 30 29">
    <path fill="#282828" fill-rule="evenodd" d="M22.04 23.627l.763.424c.51.282.764.65.764 1.102v2.29c0 .432-.151.795-.453 1.087-.302.292-.66.438-1.075.438H2.463c-.415 0-.773-.146-1.075-.438a1.453 1.453 0 0 1-.453-1.088v-2.29c0-.414.255-.772.764-1.073l.764-.452 5.856-3.166c-1.075-.847-1.82-1.978-2.235-3.39-.415-1.414-.622-2.535-.622-3.364V9.892c0-.641.198-1.277.594-1.908a6.8 6.8 0 0 1 1.556-1.71 8.439 8.439 0 0 1 2.192-1.243 6.76 6.76 0 0 1 2.475-.48c.85 0 1.679.16 2.49.48.81.32 1.532.734 2.164 1.243a6.673 6.673 0 0 1 1.528 1.71c.386.631.58 1.267.58 1.908v3.815c0 .923-.184 2.072-.552 3.448-.368 1.375-1.08 2.487-2.136 3.335l5.686 3.137zm-.284 3.532v-1.61a.755.755 0 0 0-.198-.142l-.226-.113a.138.138 0 0 1-.07-.028.925.925 0 0 0-.1-.057l-5.686-3.137a1.912 1.912 0 0 1-.65-.607 1.665 1.665 0 0 1-.283-.834 1.65 1.65 0 0 1 .127-.876c.122-.283.306-.518.551-.707.774-.603 1.302-1.465 1.585-2.586.283-1.12.424-2.04.424-2.755V9.892c0-.66-.495-1.413-1.485-2.261-.99-.848-2.145-1.272-3.466-1.272-1.282 0-2.437.424-3.465 1.272-1.028.848-1.542 1.601-1.542 2.26v3.816c0 .716.17 1.634.51 2.755.339 1.121.895 1.983 1.668 2.586.227.189.401.424.524.707.122.283.165.575.127.876-.019.301-.113.58-.283.834a1.67 1.67 0 0 1-.65.58l-5.856 3.193a.126.126 0 0 0-.057.014.222.222 0 0 0-.056.042.784.784 0 0 0-.24.113l-.213.142v1.61h19.01zm6.62-8.026l.764.424c.509.283.764.65.764 1.102v2.261c0 .434-.151.796-.453 1.088-.302.292-.66.438-1.075.438h-2.999a10.357 10.357 0 0 0-.353-1.045 1.837 1.837 0 0 0-.58-.763h3.65v-1.611a8.116 8.116 0 0 0-.199-.127.79.79 0 0 0-.226-.1.178.178 0 0 0-.071-.042.777.777 0 0 1-.099-.042l-5.771-3.137a1.912 1.912 0 0 1-.65-.608 1.665 1.665 0 0 1-.284-.834 1.65 1.65 0 0 1 .128-.876c.122-.282.306-.518.551-.706.774-.622 1.316-1.493 1.627-2.614.311-1.121.467-2.03.467-2.728V5.398c0-.678-.51-1.441-1.528-2.29a5.326 5.326 0 0 0-3.508-1.271 5.76 5.76 0 0 0-3.451 1.159 4.448 4.448 0 0 0-1.132-.198l-1.16-.057c.66-.772 1.51-1.422 2.547-1.95C16.372.264 17.437 0 18.53 0a6.66 6.66 0 0 1 2.504.495c.82.33 1.551.749 2.192 1.257a6.696 6.696 0 0 1 1.556 1.724c.396.64.594 1.281.594 1.922v3.815c0 .905-.198 2.05-.594 3.434-.396 1.385-1.122 2.492-2.178 3.32l5.771 3.166z" opacity=".2"/>
</svg>
