<svg xmlns="http://www.w3.org/2000/svg" width="30" height="30" viewBox="0 0 30 30">
    <path fill="#282828" fill-rule="evenodd" d="M22.402.547l7.242 7.242v16.294c0 .51-.174.939-.523 1.287a1.75 1.75 0 0 1-1.287.524h-6.337v-1.81h6.337V9.598H20.59V2.357h-9.957c0-.51.174-.938.523-1.287a1.75 1.75 0 0 1 1.287-.523h9.958zm0 7.242h4.668l-4.668-4.696v4.696zM2.486 4.168h9.958l7.242 7.242v16.294c0 .51-.174.939-.523 1.287a1.75 1.75 0 0 1-1.287.524H2.486A1.75 1.75 0 0 1 1.2 28.99a1.75 1.75 0 0 1-.523-1.287V5.978c0-.51.174-.938.523-1.287a1.75 1.75 0 0 1 1.287-.523zm15.39 23.536V13.22h-7.242V5.978H2.486v21.726h15.39zM12.444 11.41h4.668l-4.668-4.696v4.696z"/>
</svg>
