<svg xmlns="http://www.w3.org/2000/svg" width="48" height="48" viewBox="0 0 48 48">
    <defs>
        <linearGradient id="a" x1="28.596%" x2="87.154%" y1="44.404%" y2="57.371%">
            <stop offset="0%" stop-color="#ED1C24"/>
            <stop offset="100%" stop-color="#8B0304" stop-opacity="0"/>
        </linearGradient>
        <linearGradient id="b" x1="10.322%" x2="88.651%" y1="49.953%" y2="49.953%">
            <stop offset="0%" stop-color="#ED1C24"/>
            <stop offset="100%" stop-color="#FFCB05"/>
        </linearGradient>
        <linearGradient id="c" x1="50.002%" x2="50.002%" y1="-.786%" y2="35.658%">
            <stop offset="0%" stop-color="#E39717"/>
            <stop offset="12.36%" stop-color="#E8A116"/>
            <stop offset="43.44%" stop-color="#F4B710"/>
            <stop offset="73.21%" stop-color="#FCC509"/>
            <stop offset="100%" stop-color="#FFCB05"/>
        </linearGradient>
        <linearGradient id="d" x1="27.043%" x2="46.808%" y1="24.367%" y2="60.204%">
            <stop offset="0%" stop-color="#E39717"/>
            <stop offset="10.13%" stop-color="#E8A116"/>
            <stop offset="35.61%" stop-color="#F4B710"/>
            <stop offset="60%" stop-color="#FCC509"/>
            <stop offset="81.96%" stop-color="#FFCB05"/>
            <stop offset="100%" stop-color="#FFCB05"/>
        </linearGradient>
    </defs>
    <g fill="none" fill-rule="nonzero">
        <path fill="url(#a)" d="M23.935.007C11.098.234.485 9.304.016 21.765c-.462 12.468 9.15 22.962 21.47 23.429 6.269.24 12.034-2.16 16.252-6.224 4.058-3.915 3.89-10.804.665-7.682-3.547 3.434-8.507 5.487-13.915 5.29-10.312-.376-18.358-8.802-17.973-18.82.357-9.297 9.466-16.653 17.616-17.1l.21-.658c-.133.007-.266.007-.406.007z"/>
        <path fill="#FFCB05" d="M25.734.659c10.348.637 18.865 9.569-11.249 18.5 7.672 1.53 13.338 5.178 13.338 5.178C53.606 11.049 38.94-.043 24.351 0l-.21.659a11.956 11.956 0 0 1 1.593 0z"/>
        <path fill="url(#b)" d="M13.116 5.355C16.366 2.607 20.4.87 24.233.655c.54-.028 1.072-.028 1.598.007 5.086.314 9.73 2.628 9.59 5.975l2.543-3.04C34.567 1.31 29.502-.015 24.444 0h-.407c-4.764.086-9.22 1.389-12.96 3.64l2.039 1.715z"/>
        <path fill="url(#c)" d="M36.83 35.303c-.007-.12-.427-3.071-.427-3.071-1.043-7.011.413-13.804 11.029-14.363-15.399-7.478-25.636-.318-33.136 1.359 6.827.856 21.218 8.653 22.534 16.075z"/>
        <path fill="url(#d)" d="M41.905 19.912c-6.563 2.737-5.89 10.316-5.26 14.762.126.361.784 3.127-.736 6.012-1.884 3.248-4.937 5.701-10.82 7.29 15.079.708 32.336-13.954 16.816-28.064z"/>
    </g>
</svg>
