<svg xmlns="http://www.w3.org/2000/svg" width="288" height="57" viewBox="0 0 288 57">
    <defs>
        <linearGradient id="a" x1="28.596%" x2="87.154%" y1="44.404%" y2="57.371%">
            <stop offset="0%" stop-color="#ED1C24"/>
            <stop offset="100%" stop-color="#8B0304"/>
        </linearGradient>
        <linearGradient id="b" x1="10.322%" x2="88.651%" y1="49.953%" y2="49.953%">
            <stop offset="0%" stop-color="#ED1C24"/>
            <stop offset="100%" stop-color="#FFCB05"/>
        </linearGradient>
        <linearGradient id="c" x1="50.002%" x2="50.002%" y1="-.786%" y2="35.658%">
            <stop offset="0%" stop-color="#E39717"/>
            <stop offset="12.36%" stop-color="#E8A116"/>
            <stop offset="43.44%" stop-color="#F4B710"/>
            <stop offset="73.21%" stop-color="#FCC509"/>
            <stop offset="100%" stop-color="#FFCB05"/>
        </linearGradient>
        <linearGradient id="d" x1="27.043%" x2="46.808%" y1="24.367%" y2="60.204%">
            <stop offset="0%" stop-color="#E39717"/>
            <stop offset="10.13%" stop-color="#E8A116"/>
            <stop offset="35.61%" stop-color="#F4B710"/>
            <stop offset="60%" stop-color="#FCC509"/>
            <stop offset="81.96%" stop-color="#FFCB05"/>
            <stop offset="100%" stop-color="#FFCB05"/>
        </linearGradient>
    </defs>
    <g fill="none" fill-rule="nonzero">
        <path fill="url(#a)" d="M28.497.008C13.213.271.577 10.792.019 25.248c-.55 14.463 10.895 26.635 25.562 27.177a26.728 26.728 0 0 0 19.35-7.22c4.83-4.541 4.63-12.533.79-8.91-4.222 3.983-10.128 6.364-16.566 6.134C16.877 41.994 7.299 32.22 7.757 20.6 8.182 9.815 19.027 1.28 28.73.764L28.98 0c-.158.008-.317.008-.483.008z" transform="translate(229.757 .16)"/>
        <path fill="#FFCB05" d="M260.396.924c12.32.74 22.46 11.1-13.393 21.46 9.134 1.775 15.88 6.007 15.88 6.007C293.58 12.977 276.118.11 258.75.16l-.25.763a14.61 14.61 0 0 1 1.897 0z"/>
        <path fill="url(#b)" d="M15.615 6.212C19.485 3.024 24.29 1.008 28.852.76a16.212 16.212 0 0 1 1.902.008c6.055.364 11.585 3.049 11.418 6.931L45.2 4.172C41.154 1.52 35.124-.016 29.102 0h-.484c-5.671.1-10.976 1.611-15.43 4.221l2.427 1.991z" transform="translate(229.757 .16)"/>
        <path fill="url(#c)" d="M43.85 40.951c-.01-.14-.51-3.562-.51-3.562-1.242-8.133.492-16.012 13.131-16.66-18.333-8.675-30.522-.37-39.45 1.575 8.128.993 25.26 10.038 26.828 18.647z" transform="translate(229.757 .16)"/>
        <path fill="url(#d)" d="M49.89 23.098c-7.812 3.174-7.012 11.967-6.261 17.124.15.42.933 3.627-.876 6.974-2.243 3.767-5.879 6.613-12.883 8.455 17.953.823 38.499-16.186 20.02-32.553z" transform="translate(229.757 .16)"/>
        <g fill="#002C76">
            <path d="M65.22 34.81c-1.615.403-2.827.604-4.038.604-3.03 0-3.635-2.617-3.635-4.83 0-3.423 1.212-5.234 3.635-5.234 1.211 0 2.019.201 2.019.201l2.221.805v-2.818l-.202-.201c-.808-.403-2.625-1.007-4.846-1.007-4.442 0-7.27 3.221-7.27 8.052 0 4.63 2.828 7.649 6.866 7.649 1.817 0 3.433-.403 5.856-1.41l.404-.2-.606-2.215-.404.604zM14.134 26.96c2.02-.805 2.827-2.214 2.827-4.63 0-2.214-1.01-4.025-2.827-4.63-1.211-.603-2.423-.603-6.26-.603H0v2.214s1.817.201 2.423.403v18.518h6.26c3.028 0 4.442-.201 5.653-.805 2.02-1.006 3.231-2.818 3.231-5.233.202-2.819-1.01-4.63-3.433-5.234zm-7.269-7.246H8.077c1.615 0 2.827 0 3.634.603.606.403.808 1.208.808 2.013 0 2.013-.606 3.02-3.029 3.221l-1.817.201-.808 1.41v-7.448zm5.048 14.895c-1.01.805-2.423.805-4.24.805h-.808V28.57H8.481c1.615 0 2.827 0 3.634.604.606.604 1.01 1.41 1.01 2.617 0 1.208-.404 2.214-1.212 2.818zM137.911 26.96c2.02-.805 2.827-2.214 2.827-4.63 0-2.214-1.01-4.025-2.827-4.63-1.211-.603-2.423-.603-6.26-.603h-7.874v2.214s1.817.201 2.423.403v18.518h6.26c3.028 0 4.442-.201 5.653-.805 2.02-1.006 3.23-2.818 3.23-5.233.203-2.819-1.009-4.63-3.432-5.234zm-7.269-7.246H131.854c1.615 0 2.827 0 3.634.603.606.403.808 1.208.808 2.013 0 2.013-.606 3.02-3.029 3.221l-1.817.201-.808 1.41v-7.448zm5.048 14.895c-1.01.805-2.423.805-4.24.805h-.808V28.57H132.258c1.615 0 2.826 0 3.634.604.606.604 1.01 1.41 1.01 2.617.202 1.208-.404 2.214-1.212 2.818zM46.845 22.532c-1.211 0-2.826.402-4.846 1.207v-1.207l-6.26.805v2.214h2.424v12.48h4.24V26.356c.606-.201 1.817-.604 3.23-.604.607 0 1.212.202 1.414.403.404.402.404 1.208.404 2.214v9.662h4.24v-9.863c0-2.214-.201-3.02-.807-4.026-1.01-1.007-2.221-1.61-4.039-1.61zM74.508 22.532c-4.644 0-7.673 3.019-7.673 7.85 0 4.83 2.827 7.85 7.673 7.85 4.645 0 7.471-3.02 7.471-7.85 0-4.831-2.826-7.85-7.47-7.85zm0 13.083c-1.413 0-3.23-.603-3.23-5.233s1.615-5.234 3.23-5.234c1.414 0 3.231.604 3.231 5.033-.202 4.83-1.817 5.434-3.23 5.434zM184.15 22.532c-4.643 0-7.672 3.019-7.672 7.85 0 4.83 2.827 7.85 7.673 7.85 4.644 0 7.673-3.02 7.673-7.85 0-4.831-2.827-7.85-7.673-7.85zm0 13.083c-1.413 0-3.23-.603-3.23-5.233s1.616-5.234 3.23-5.234c1.414 0 3.232.604 3.232 5.033 0 4.83-1.616 5.434-3.231 5.434zM201.92 35.213l-3.029.402c-.606 0-.808-.2-1.01-.402 0-.201-.201-.201-.201-1.41v-8.252h4.24v-2.617h-4.24v-4.026h-.606l-3.635.403v14.292c0 1.61.202 2.616.808 3.422.606.805 1.615 1.207 3.029 1.207 1.413 0 2.827-.402 4.442-1.006l.404-.201-.202-1.812zM151.238 22.532c-4.644 0-7.673 3.019-7.673 7.85 0 4.83 2.827 7.85 7.673 7.85 4.644 0 7.471-3.02 7.471-7.85 0-4.831-2.827-7.85-7.471-7.85zm0 13.083c-1.413 0-3.23-.603-3.23-5.233s1.615-5.234 3.23-5.234c1.413 0 3.23.604 3.23 5.033 0 4.83-1.615 5.434-3.23 5.434zM170.622 23.74c-1.01-.605-2.22-.806-3.23-.806-4.24 0-7.27 3.422-7.27 8.052 0 4.428 2.424 7.246 6.058 7.246 1.01 0 2.02-.201 4.24-1.207v1.207c0 2.617-1.01 3.422-4.24 3.422-1.413 0-3.433-.201-5.048-.604v2.617c3.23.604 4.442.805 6.058.805 2.019 0 3.836-.402 5.048-1.006 1.817-1.007 2.423-2.416 2.423-5.032V23.135h-4.24v.604h.201zm0 11.272c-.807.2-1.211.2-2.019.2-2.625 0-3.836-1.61-3.836-4.629 0-3.22 1.615-4.83 4.24-4.83.404 0 .808 0 1.615.2v9.059zM33.519 23.337H29.48v.604c-1.01-.604-2.019-.806-3.23-.806-4.039 0-7.068 3.221-7.068 8.052 0 4.428 2.222 7.247 6.058 7.247 1.01 0 2.221-.403 4.038-1.61v1.408l5.856-.604v-2.415H33.52V23.337zM29.48 35.213c-.807.201-1.211.201-2.019.201-2.625 0-4.038-1.61-4.038-4.63 0-3.22 1.615-5.032 4.442-5.032.606 0 .808 0 1.615.202v9.259zM217.468 23.337h-4.039v.604c-1.01-.604-2.019-.806-3.23-.806-4.039 0-7.068 3.221-7.068 8.052 0 4.428 2.222 7.247 6.058 7.247 1.01 0 2.221-.403 4.038-1.61v1.408l5.856-.604v-2.415h-1.615V23.337zm-4.24 11.876c-.808.201-1.212.201-2.02.201-2.625 0-4.038-1.61-4.038-4.63 0-3.22 1.615-5.032 4.442-5.032.606 0 .808 0 1.615.202v9.259zM215.449 19.512l-1.01-3.22-.404.2-6.663 2.618.605 1.811zM102.171 15.889h-.605l-5.452.604v1.812h2.02v4.83c-1.616-.603-4.04-1.006-6.059-.402-2.826 1.006-4.644 3.623-4.644 7.448 0 3.422 1.616 6.24 4.443 7.246 2.019.604 4.846 0 6.461-.805v1.208l5.654-.805v-1.812h-1.818c-.201 0 0-19.324 0-19.324zm-4.24 19.123c-1.817.603-4.038.805-5.25-.806-.807-1.006-1.01-2.415-1.01-3.824v-.403c0-1.61.404-2.616 1.212-3.623 1.212-1.409 3.433-1.208 5.048-.402.202 0 0 8.655 0 9.058zM112.267 22.532c-1.01 0-1.817 0-2.625.402-3.028 1.007-4.846 3.623-4.846 7.65 0 3.622 1.818 6.44 4.846 7.447 2.625.805 6.462 0 9.087-1.41h.202l-.606-2.213-1.413.402c-2.02.604-4.645 1.61-6.26-.402-.808-1.007-1.01-2.617-1.01-3.825l8.077.202h1.212v-1.208c-.202-7.247-6.462-7.045-6.664-7.045zm-3.028 6.038c0-.201.202-3.22 2.827-3.22 2.826 0 2.826 3.019 2.826 3.22h-5.653z"/>
        </g>
    </g>
</svg>
