<svg xmlns="http://www.w3.org/2000/svg" width="32" height="30" viewBox="0 0 32 30">
    <path fill="#282828" fill-rule="evenodd" d="M32 8.063V26.5c0 .833-.292 1.542-.875 2.125A2.893 2.893 0 0 1 29 29.5H3a2.893 2.893 0 0 1-2.125-.875A2.893 2.893 0 0 1 0 26.5v-16c0-.813.292-1.51.875-2.094A2.971 2.971 0 0 1 2.969 7.5h1v-4c0-.833.297-1.542.89-2.125C5.453.792 6.156.5 6.97.5L29.562 5c1.126.313 1.813.812 2.063 1.5.25.688.375 1.208.375 1.563zM5.969 3.5v4H28c.396.02.656-.062.781-.25l.188-.281L6.906 2.5a.996.996 0 0 0-.672.313.964.964 0 0 0-.265.687zM30 26.5v-18c0 .333-.214.583-.64.75-.428.167-.88.25-1.36.25H3a.961.961 0 0 0-.703.297A.961.961 0 0 0 2 10.5v16c0 .27.099.505.297.703A.961.961 0 0 0 3 27.5h26c.27 0 .505-.099.703-.297A.961.961 0 0 0 30 26.5zm-24-10c.542 0 1.01.198 1.406.594.396.396.594.864.594 1.406 0 .563-.198 1.036-.594 1.422A1.948 1.948 0 0 1 6 20.5a1.933 1.933 0 0 1-1.422-.578A1.933 1.933 0 0 1 4 18.5c0-.542.193-1.01.578-1.406.386-.396.86-.594 1.422-.594z" opacity=".2"/>
</svg>
